# xmcd CD database file
#
# Track frame offsets:
#	150
#	15452
#	33447
#	50605
#	68445
#	89422
#	103475
#	121835
#	136705
#	157912
#	175347
#	203150
#	219685
#	237552
#	256795
#	272390
#
# Disc length: 3929 seconds
#
# Revision: 3
# Processed by: cddbd v1.5.2PL0 Copyright (c) Steve Scherf et al.
# Submitted via: CDex 1.70beta3
#
DISCID=d70f5710
DTITLE=坪倉唯子 TYCY-5160 - バブルガム・クライシス・コンプリート・ボーカル・コレクションVol.2
DYEAR=1991
DGENRE=Anime
TTITLE0=坪倉唯子/薔薇の戦士
TTITLE1=富沢美智恵/真夜中の主役
TTITLE2=榊原良子/スターライト
TTITLE3=大森絹子／榊原良子／富沢美智恵／平松晶子/ミステリアスナイト
TTITLE4=坪倉唯子/思い出に抱かれて
TTITLE5=大森絹子／榊原良子／富沢美智恵／平松晶子/ジャンピング・ハート
TTITLE6=平松晶子/Kiss.Seventeen Girl
TTITLE7=富沢美智恵/ハートはニュートラル
TTITLE8=榊原良子/With
TTITLE9=坪倉唯子/Rock me
TTITLE10=橋本舞子/Say,Yes!
TTITLE11=平松晶子/Q～あなたは私の太陽～
TTITLE12=榊原良子/Here in the dark
TTITLE13=富沢美智恵/Come into action
TTITLE14=大森絹子／榊原良子／富沢美智恵／平松晶子/Yes,Do it!
TTITLE15=橋本舞子/Never The End
EXTD=YEAR: 1991
EXTT0=
EXTT1=
EXTT2=
EXTT3=
EXTT4=
EXTT5=
EXTT6=
EXTT7=
EXTT8=
EXTT9=
EXTT10=
EXTT11=
EXTT12=
EXTT13=
EXTT14=
EXTT15=
PLAYORDER=
